<svg width="9" height="11" viewBox="0 0 9 11" fill="none" xmlns="http://www.w3.org/2000/svg">
<path d="M4.7174 10.602C3.9334 10.602 3.2474 10.3967 2.6594 9.98599C2.0714 9.56599 1.6141 8.97799 1.2874 8.22199C0.970101 7.45669 0.811401 6.55599 0.811401 5.51999C0.811401 4.48399 0.970101 3.58799 1.2874 2.83199C1.6141 2.06669 2.0714 1.47869 2.6594 1.06799C3.2474 0.647988 3.9334 0.437988 4.7174 0.437988C5.5107 0.437988 6.1967 0.647988 6.7754 1.06799C7.3634 1.47869 7.8161 2.06669 8.1334 2.83199C8.4601 3.58799 8.6234 4.48399 8.6234 5.51999C8.6234 6.55599 8.4601 7.45669 8.1334 8.22199C7.8161 8.97799 7.3634 9.56599 6.7754 9.98599C6.1967 10.3967 5.5107 10.602 4.7174 10.602ZM4.7174 8.94999C5.3334 8.94999 5.8234 8.64669 6.1874 8.03999C6.5607 7.43329 6.7474 6.59329 6.7474 5.51999C6.7474 4.44669 6.5607 3.60669 6.1874 2.99999C5.8234 2.39329 5.3334 2.08999 4.7174 2.08999C4.1014 2.08999 3.6067 2.39329 3.2334 2.99999C2.8694 3.60669 2.6874 4.44669 2.6874 5.51999C2.6874 6.59329 2.8694 7.43329 3.2334 8.03999C3.6067 8.64669 4.1014 8.94999 4.7174 8.94999Z" fill="white"/>
</svg>
